<svg width="10" height="19" viewBox="0 0 10 19" fill="none" xmlns="http://www.w3.org/2000/svg">
<path d="M6.02116 18.259C5.93225 18.2626 5.87534 18.2699 5.81844 18.2699C4.60212 18.2699 3.38935 18.2663 2.17302 18.2735C2.00231 18.2735 1.95608 18.2264 1.95608 18.0523C1.95963 15.1657 1.95963 12.2754 1.95963 9.3888C1.95963 9.31264 1.95963 9.23649 1.95963 9.13857C1.29812 9.13857 0.654397 9.13857 0 9.13857C0 8.10867 0 7.0969 0 6.05612C0.0675736 6.05612 0.13159 6.05612 0.192051 6.05612C0.725526 6.05612 1.259 6.0525 1.79248 6.05975C1.92762 6.05975 1.96319 6.01986 1.96319 5.88568C1.95608 5.07699 1.95608 4.26467 1.96319 3.45598C1.96675 2.89026 2.05566 2.33905 2.31173 1.82772C2.67805 1.10607 3.25776 0.638258 3.9904 0.348145C4.58789 0.108802 5.21739 0.0217676 5.85045 0.0108883C6.88183 -0.00361734 7.91322 0.00363548 8.94461 9.06608e-06C9.04063 9.06608e-06 9.11887 -0.00361735 9.11887 0.134186C9.11532 1.13145 9.11532 2.12871 9.11532 3.12598C9.11532 3.13686 9.11176 3.14774 9.09754 3.19488C9.03708 3.19488 8.9695 3.19488 8.90193 3.19488C8.26176 3.19488 7.62159 3.19125 6.98142 3.19488C6.61154 3.19488 6.31279 3.34719 6.1243 3.67719C6.0674 3.77511 6.03183 3.90203 6.03183 4.01808C6.02116 4.63457 6.03183 5.25106 6.02472 5.86755C6.02472 6.01261 6.06739 6.0525 6.2061 6.0525C7.09522 6.04524 7.98435 6.04887 8.87348 6.04887C8.94461 6.04887 9.01218 6.04887 9.1331 6.04887C9.00862 7.08602 8.8877 8.10142 8.76322 9.1277C7.83853 9.1277 6.93874 9.1277 6.02116 9.1277C6.02116 12.1775 6.02116 15.2092 6.02116 18.259Z" fill="currentColor"/>
</svg>
