<svg width="259" height="52" viewBox="0 0 259 52" fill="none" xmlns="http://www.w3.org/2000/svg">
<path d="M49.6643 0H0V13.2583H49.6643V0Z" fill="#39A2FF"/>
<path d="M44.0707 26H0V39.2583H44.0707V26Z" fill="#FFD900"/>
<path d="M34.7479 13.2588H5.25439V26.0005H34.7479V13.2588Z" fill="#131313"/>
<path d="M49.6646 39.2588H12.5435V52.0005H49.6646V39.2588Z" fill="#131313"/>
<path d="M92.8872 9.81461C90.8532 9.81461 89.4972 10.3312 88.4801 11.3643C87.4631 12.3974 86.9546 13.7749 86.9546 15.6689V17.2186H96.2773V22.3841H86.9546V47.0066H81.022V22.5563H76.1064V17.3908H81.022V15.6689C81.022 12.053 82.039 9.29806 84.0731 7.23184C86.1071 5.3378 88.8191 4.30469 92.2092 4.30469C94.7517 4.30469 97.1248 4.99343 99.3283 6.19872L97.4638 11.1921C95.4298 10.3312 93.9042 9.81461 92.8872 9.81461Z" fill="black"/>
<path d="M112.889 47.8674C108.99 47.8674 105.939 46.6621 103.566 44.4237C101.193 42.1853 100.006 38.9138 100.006 34.9535V17.3906H105.939V34.9535C105.939 37.1919 106.617 38.9138 107.803 40.2913C108.99 41.6687 110.685 42.3575 112.889 42.3575C115.092 42.3575 116.787 41.6687 117.974 40.4634C119.16 39.086 119.838 37.3641 119.838 35.1257V17.3906H125.94V34.9535C125.94 39.086 124.754 42.1853 122.55 44.4237C120.008 46.6621 116.957 47.8674 112.889 47.8674Z" fill="black"/>
<path d="M139.84 47.0068L129.839 17.2188H136.11L142.721 38.5697L150.349 17.2188H154.586L162.383 38.5697L168.824 17.2188H175.096L165.265 47.0068H160.18L152.552 26.0002L145.094 47.0068H139.84Z" fill="black"/>
<path d="M201.538 17.3906H207.301V47.1786H201.538V43.0462C198.826 46.3177 195.606 47.8674 191.538 47.8674C187.3 47.8674 183.91 46.3177 181.029 43.3905C178.317 40.2912 176.791 36.6753 176.791 32.1985C176.791 27.7217 178.147 24.1058 181.029 21.1787C183.741 18.2515 187.3 16.874 191.538 16.874C195.606 16.874 198.826 18.4237 201.538 21.6952V17.3906ZM192.385 42.1852C195.097 42.1852 197.47 41.1521 199.165 39.2581C200.86 37.3641 201.877 34.9535 201.877 32.1985C201.877 29.4435 201.03 27.0329 199.165 25.1389C197.47 23.2449 195.097 22.2118 192.385 22.2118C189.673 22.2118 187.3 23.2449 185.605 25.1389C183.91 27.0329 183.063 29.4435 183.063 32.3707C183.063 35.1257 183.91 37.5362 185.605 39.4303C187.3 41.3243 189.504 42.1852 192.385 42.1852Z" fill="black"/>
<path d="M214.929 47.1789V17.3909H220.692V21.6955C222.387 18.424 225.269 16.7021 228.998 16.7021C230.184 16.7021 231.371 16.8743 232.557 17.2187L232.049 23.073C231.032 22.7286 229.845 22.5564 228.828 22.5564C226.625 22.5564 224.76 23.4174 223.235 24.967C221.709 26.5167 221.031 28.9273 221.031 32.0266V47.3511H214.929V47.1789Z" fill="black"/>
<path d="M256.966 40.6363L259 45.4575C256.796 47.1793 254.084 47.8681 250.864 47.8681C247.643 47.8681 245.27 46.835 243.745 44.9409C242.05 43.0469 241.372 40.1198 241.372 36.5039V22.5569H236.287V17.3913H241.372V6.71582H247.304V17.2191H257.474V22.3847H247.304V36.3317C247.304 40.1198 248.83 42.0138 251.881 42.0138C253.406 42.186 255.101 41.6694 256.966 40.6363Z" fill="black"/>
</svg>
