<svg width="731" height="432" viewBox="0 0 731 432" fill="none" xmlns="http://www.w3.org/2000/svg">
<rect x="31" y="59" width="204" height="206" fill="#71B3E7"/>
<path d="M33.0469 74.9844H15.4688L15.375 64.2031H29.625C32.1875 64.2031 34.2344 63.9219 35.7656 63.3594C37.2969 62.7656 38.4062 61.9062 39.0938 60.7812C39.8125 59.6562 40.1719 58.25 40.1719 56.5625C40.1719 54.625 39.8125 53.0625 39.0938 51.875C38.375 50.6875 37.2344 49.8281 35.6719 49.2969C34.1406 48.7344 32.1562 48.4531 29.7188 48.4531H21.6562V104H5.20312V35.75H29.7188C33.9375 35.75 37.7031 36.1406 41.0156 36.9219C44.3281 37.6719 47.1406 38.8281 49.4531 40.3906C51.7969 41.9531 53.5781 43.9219 54.7969 46.2969C56.0156 48.6406 56.625 51.4062 56.625 54.5938C56.625 57.375 56.0312 59.9844 54.8438 62.4219C53.6562 64.8594 51.6719 66.8438 48.8906 68.375C46.1406 69.875 42.375 70.6562 37.5938 70.7188L33.0469 74.9844ZM32.3906 104H11.4844L17.1094 91.3438H32.3906C34.6406 91.3438 36.4375 91 37.7812 90.3125C39.1562 89.5938 40.1406 88.6562 40.7344 87.5C41.3594 86.3125 41.6719 85 41.6719 83.5625C41.6719 81.8125 41.375 80.2969 40.7812 79.0156C40.2188 77.7344 39.3125 76.75 38.0625 76.0625C36.8125 75.3438 35.1406 74.9844 33.0469 74.9844H19.2188L19.3125 64.2031H35.8594L39.7031 68.5156C44.2656 68.3281 47.875 68.9688 50.5312 70.4375C53.2188 71.9062 55.1406 73.8438 56.2969 76.25C57.4531 78.6562 58.0312 81.1719 58.0312 83.7969C58.0312 88.2656 57.0625 92 55.125 95C53.2188 98 50.3594 100.25 46.5469 101.75C42.7344 103.25 38.0156 104 32.3906 104ZM104.203 35.75H120.656V80.3281C120.656 85.6406 119.547 90.1406 117.328 93.8281C115.109 97.4844 112 100.25 108 102.125C104 104 99.2969 104.938 93.8906 104.938C88.5469 104.938 83.8438 104 79.7812 102.125C75.75 100.25 72.5938 97.4844 70.3125 93.8281C68.0625 90.1406 66.9375 85.6406 66.9375 80.3281V35.75H83.4375V80.3281C83.4375 83.1406 83.8438 85.4375 84.6562 87.2188C85.4688 88.9688 86.6562 90.25 88.2188 91.0625C89.7812 91.875 91.6719 92.2812 93.8906 92.2812C96.1406 92.2812 98.0312 91.875 99.5625 91.0625C101.094 90.25 102.25 88.9688 103.031 87.2188C103.812 85.4375 104.203 83.1406 104.203 80.3281V35.75ZM143.391 35.75L155.953 65.375L168.562 35.75H186.281L164.344 79.4844V104H147.609V79.4844L125.625 35.75H143.391ZM42.2344 135.75H58.6875V180.328C58.6875 185.641 57.5781 190.141 55.3594 193.828C53.1406 197.484 50.0312 200.25 46.0312 202.125C42.0312 204 37.3281 204.938 31.9219 204.938C26.5781 204.938 21.875 204 17.8125 202.125C13.7812 200.25 10.625 197.484 8.34375 193.828C6.09375 190.141 4.96875 185.641 4.96875 180.328V135.75H21.4688V180.328C21.4688 183.141 21.875 185.438 22.6875 187.219C23.5 188.969 24.6875 190.25 26.25 191.062C27.8125 191.875 29.7031 192.281 31.9219 192.281C34.1719 192.281 36.0625 191.875 37.5938 191.062C39.125 190.25 40.2812 188.969 41.0625 187.219C41.8438 185.438 42.2344 183.141 42.2344 180.328V135.75ZM85.5 135.75V204H69.0469V135.75H85.5ZM126.234 135.75L99.7969 170.344L84.3281 187.266L81.3281 172.172L91.2188 157.172L105.938 135.75H126.234ZM106.781 204L89.1562 173.25L101.953 163.828L126.234 204H106.781ZM130.453 135.75H157.312C162.562 135.75 167.125 136.531 171 138.094C174.875 139.656 177.859 141.969 179.953 145.031C182.078 148.094 183.141 151.875 183.141 156.375C183.141 160.281 182.531 163.547 181.312 166.172C180.094 168.797 178.391 170.969 176.203 172.688C174.047 174.375 171.531 175.766 168.656 176.859L163.266 179.906H140.719L140.625 167.203H157.312C159.406 167.203 161.141 166.828 162.516 166.078C163.891 165.328 164.922 164.266 165.609 162.891C166.328 161.484 166.688 159.812 166.688 157.875C166.688 155.906 166.328 154.219 165.609 152.812C164.891 151.406 163.828 150.328 162.422 149.578C161.047 148.828 159.344 148.453 157.312 148.453H146.906V204H130.453V135.75ZM167.812 204L152.719 173.812L170.156 173.719L185.438 203.297V204H167.812ZM222 150.094L205.359 204H187.688L212.766 135.75H223.969L222 150.094ZM235.781 204L219.094 150.094L216.938 135.75H228.281L253.5 204H235.781ZM235.125 178.547V191.25H200.109V178.547H235.125ZM276 135.75V204H259.594V135.75H276ZM344.578 135.75V204H328.172L304.031 161.531V204H287.578V135.75H304.031L328.172 178.219V135.75H344.578ZM372.469 135.75V204H356.062V135.75H372.469ZM413.812 150.094L397.172 204H379.5L404.578 135.75H415.781L413.812 150.094ZM427.594 204L410.906 150.094L408.75 135.75H420.094L445.312 204H427.594ZM426.938 178.547V191.25H391.922V178.547H426.938ZM507.328 135.75V204H490.922L466.781 161.531V204H450.328V135.75H466.781L490.922 178.219V135.75H507.328ZM21.6562 235.75V304H5.20312V235.75H21.6562ZM48.1875 264.156V276.812H16.9688V264.156H48.1875ZM50.8594 235.75V248.453H16.9688V235.75H50.8594ZM115.453 268.516V271.281C115.453 276.5 114.719 281.188 113.25 285.344C111.812 289.469 109.766 293 107.109 295.938C104.453 298.844 101.312 301.078 97.6875 302.641C94.0625 304.172 90.0625 304.938 85.6875 304.938C81.2812 304.938 77.25 304.172 73.5938 302.641C69.9688 301.078 66.8125 298.844 64.125 295.938C61.4688 293 59.4062 289.469 57.9375 285.344C56.5 281.188 55.7812 276.5 55.7812 271.281V268.516C55.7812 263.297 56.5 258.609 57.9375 254.453C59.4062 250.297 61.4531 246.766 64.0781 243.859C66.7344 240.922 69.875 238.688 73.5 237.156C77.1562 235.594 81.1875 234.812 85.5938 234.812C89.9688 234.812 93.9688 235.594 97.5938 237.156C101.25 238.688 104.406 240.922 107.062 243.859C109.719 246.766 111.781 250.297 113.25 254.453C114.719 258.609 115.453 263.297 115.453 268.516ZM98.7656 271.281V268.422C98.7656 265.047 98.4688 262.078 97.875 259.516C97.3125 256.922 96.4688 254.75 95.3438 253C94.2188 251.25 92.8281 249.938 91.1719 249.062C89.5469 248.156 87.6875 247.703 85.5938 247.703C83.4062 247.703 81.5 248.156 79.875 249.062C78.25 249.938 76.8906 251.25 75.7969 253C74.7031 254.75 73.875 256.922 73.3125 259.516C72.7812 262.078 72.5156 265.047 72.5156 268.422V271.281C72.5156 274.625 72.7812 277.594 73.3125 280.188C73.875 282.75 74.7031 284.922 75.7969 286.703C76.9219 288.484 78.2969 289.828 79.9219 290.734C81.5781 291.641 83.5 292.094 85.6875 292.094C87.7812 292.094 89.6406 291.641 91.2656 290.734C92.8906 289.828 94.25 288.484 95.3438 286.703C96.4688 284.922 97.3125 282.75 97.875 280.188C98.4688 277.594 98.7656 274.625 98.7656 271.281ZM123.984 235.75H150.844C156.094 235.75 160.656 236.531 164.531 238.094C168.406 239.656 171.391 241.969 173.484 245.031C175.609 248.094 176.672 251.875 176.672 256.375C176.672 260.281 176.062 263.547 174.844 266.172C173.625 268.797 171.922 270.969 169.734 272.688C167.578 274.375 165.062 275.766 162.188 276.859L156.797 279.906H134.25L134.156 267.203H150.844C152.938 267.203 154.672 266.828 156.047 266.078C157.422 265.328 158.453 264.266 159.141 262.891C159.859 261.484 160.219 259.812 160.219 257.875C160.219 255.906 159.859 254.219 159.141 252.812C158.422 251.406 157.359 250.328 155.953 249.578C154.578 248.828 152.875 248.453 150.844 248.453H140.438V304H123.984V235.75ZM161.344 304L146.25 273.812L163.688 273.719L178.969 303.297V304H161.344ZM223.641 235.75H240.094V280.328C240.094 285.641 238.984 290.141 236.766 293.828C234.547 297.484 231.438 300.25 227.438 302.125C223.438 304 218.734 304.938 213.328 304.938C207.984 304.938 203.281 304 199.219 302.125C195.188 300.25 192.031 297.484 189.75 293.828C187.5 290.141 186.375 285.641 186.375 280.328V235.75H202.875V280.328C202.875 283.141 203.281 285.438 204.094 287.219C204.906 288.969 206.094 290.25 207.656 291.062C209.219 291.875 211.109 292.281 213.328 292.281C215.578 292.281 217.469 291.875 219 291.062C220.531 290.25 221.688 288.969 222.469 287.219C223.25 285.438 223.641 283.141 223.641 280.328V235.75ZM258.609 235.75H272.016L287.25 283.234L302.484 235.75H315.891L292.688 304H281.812L258.609 235.75ZM250.453 235.75H264.328L266.906 288.062V304H250.453V235.75ZM310.172 235.75H324.094V304H307.594V288.062L310.172 235.75Z" fill="black"/>
<path d="M389.818 237.828H392.923L400.842 257.534L408.744 237.828H411.865L402.037 262H399.613L389.818 237.828ZM388.806 237.828H391.545L391.993 252.57V262H388.806V237.828ZM410.122 237.828H412.861V262H409.674V252.57L410.122 237.828ZM421.926 237.828V262H418.722V237.828H421.926ZM434.975 250.96L426.342 237.828H430.094L436.519 248.304H441.067L440.553 250.96H434.975ZM436.701 250.711L429.679 262H425.694L434.676 247.955L436.701 250.711ZM442.445 237.828V262H439.274V237.828H442.445ZM455.262 237.828L446.596 250.96H441.184L440.686 248.304H445.068L451.493 237.828H455.262ZM451.908 262L444.902 250.711L446.944 247.955L455.893 262H451.908ZM474.719 248.221V250.827H461.637V248.221H474.719ZM462.135 237.828V262H458.931V237.828H462.135ZM477.508 237.828V262H474.32V237.828H477.508ZM492.449 239.97L484.447 262H481.177L490.391 237.828H492.499L492.449 239.97ZM499.156 262L491.138 239.97L491.088 237.828H493.196L502.443 262H499.156ZM498.741 253.052V255.675H485.161V253.052H498.741ZM514.596 252.521H508.138V249.914H514.596C515.846 249.914 516.859 249.715 517.634 249.316C518.409 248.918 518.973 248.365 519.327 247.656C519.692 246.948 519.875 246.14 519.875 245.232C519.875 244.402 519.692 243.622 519.327 242.892C518.973 242.161 518.409 241.575 517.634 241.132C516.859 240.678 515.846 240.451 514.596 240.451H508.885V262H505.681V237.828H514.596C516.422 237.828 517.966 238.144 519.228 238.774C520.489 239.405 521.447 240.28 522.1 241.397C522.753 242.504 523.079 243.771 523.079 245.199C523.079 246.749 522.753 248.071 522.1 249.167C521.447 250.263 520.489 251.098 519.228 251.674C517.966 252.238 516.422 252.521 514.596 252.521ZM545.74 249.15V250.678C545.74 252.493 545.513 254.12 545.06 255.559C544.606 256.997 543.953 258.22 543.101 259.228C542.248 260.235 541.225 261.004 540.029 261.535C538.845 262.066 537.517 262.332 536.045 262.332C534.617 262.332 533.306 262.066 532.11 261.535C530.926 261.004 529.897 260.235 529.022 259.228C528.159 258.22 527.49 256.997 527.014 255.559C526.538 254.12 526.3 252.493 526.3 250.678V249.15C526.3 247.335 526.532 245.714 526.997 244.286C527.473 242.847 528.143 241.624 529.006 240.617C529.869 239.599 530.893 238.824 532.077 238.293C533.272 237.762 534.584 237.496 536.012 237.496C537.484 237.496 538.812 237.762 539.996 238.293C541.191 238.824 542.215 239.599 543.067 240.617C543.931 241.624 544.589 242.847 545.043 244.286C545.508 245.714 545.74 247.335 545.74 249.15ZM542.569 250.678V249.117C542.569 247.678 542.42 246.406 542.121 245.299C541.833 244.192 541.407 243.262 540.843 242.51C540.278 241.757 539.587 241.187 538.768 240.8C537.96 240.412 537.041 240.219 536.012 240.219C535.016 240.219 534.114 240.412 533.306 240.8C532.509 241.187 531.823 241.757 531.247 242.51C530.683 243.262 530.245 244.192 529.936 245.299C529.626 246.406 529.471 247.678 529.471 249.117V250.678C529.471 252.128 529.626 253.411 529.936 254.529C530.245 255.636 530.688 256.571 531.264 257.335C531.85 258.088 532.542 258.658 533.339 259.045C534.147 259.432 535.049 259.626 536.045 259.626C537.085 259.626 538.009 259.432 538.817 259.045C539.625 258.658 540.306 258.088 540.859 257.335C541.424 256.571 541.85 255.636 542.138 254.529C542.425 253.411 542.569 252.128 542.569 250.678ZM568.982 259.394V262H550.688V259.394H568.982ZM551.202 259.394V267.943H548.031L548.015 259.394H551.202ZM571.771 259.394L571.738 267.927H568.567V259.394H571.771ZM565.845 237.828V240.451H555.253V237.828H565.845ZM568.601 237.828V262H565.413V237.828H568.601ZM554.157 237.828H557.361L556.863 247.557C556.797 249.018 556.659 250.368 556.448 251.607C556.238 252.836 555.978 253.959 555.668 254.978C555.358 255.996 555.004 256.909 554.605 257.717C554.207 258.514 553.781 259.205 553.327 259.792C552.873 260.368 552.397 260.843 551.899 261.22C551.412 261.585 550.92 261.845 550.422 262H548.961V259.394H549.99C550.278 259.084 550.604 258.635 550.97 258.049C551.346 257.462 551.717 256.704 552.082 255.774C552.458 254.834 552.785 253.688 553.062 252.338C553.349 250.988 553.543 249.394 553.643 247.557L554.157 237.828ZM591.328 248.221V250.827H578.246V248.221H591.328ZM578.744 237.828V262H575.54V237.828H578.744ZM594.117 237.828V262H590.93V237.828H594.117ZM609.059 239.97L601.057 262H597.786L607 237.828H609.108L609.059 239.97ZM615.766 262L607.747 239.97L607.697 237.828H609.806L619.053 262H615.766ZM615.351 253.052V255.675H601.771V253.052H615.351ZM404.162 302.394V305H391.362V302.394H404.162ZM392.01 280.828V305H388.806V280.828H392.01ZM402.469 291.221V293.827H391.362V291.221H402.469ZM403.996 280.828V283.451H391.362V280.828H403.996ZM411.483 280.828V305H408.279V280.828H411.483ZM426.375 280.828L415.883 294.126H410.205L409.707 291.47H413.974L422.407 280.828H426.375ZM423.154 305L414.073 293.711L415.866 290.905L427.072 305H423.154ZM444.039 297.313H447.227C447.061 298.841 446.623 300.208 445.915 301.414C445.207 302.62 444.205 303.578 442.91 304.286C441.615 304.983 439.999 305.332 438.062 305.332C436.646 305.332 435.356 305.066 434.194 304.535C433.043 304.004 432.053 303.251 431.223 302.277C430.393 301.292 429.751 300.114 429.297 298.741C428.854 297.358 428.633 295.819 428.633 294.126V291.719C428.633 290.025 428.854 288.493 429.297 287.12C429.751 285.737 430.398 284.552 431.239 283.567C432.091 282.582 433.115 281.824 434.311 281.293C435.506 280.762 436.851 280.496 438.345 280.496C440.171 280.496 441.715 280.839 442.977 281.525C444.238 282.212 445.218 283.163 445.915 284.381C446.623 285.587 447.061 286.987 447.227 288.581H444.039C443.884 287.452 443.596 286.484 443.176 285.676C442.755 284.857 442.158 284.226 441.383 283.783C440.608 283.34 439.595 283.119 438.345 283.119C437.271 283.119 436.325 283.324 435.506 283.733C434.698 284.143 434.017 284.724 433.464 285.477C432.922 286.229 432.512 287.131 432.235 288.183C431.959 289.234 431.82 290.402 431.82 291.686V294.126C431.82 295.31 431.942 296.423 432.186 297.463C432.44 298.503 432.822 299.416 433.331 300.202C433.84 300.988 434.488 301.608 435.273 302.062C436.059 302.504 436.989 302.726 438.062 302.726C439.424 302.726 440.508 302.51 441.316 302.078C442.124 301.646 442.733 301.027 443.143 300.219C443.563 299.411 443.862 298.442 444.039 297.313ZM470.054 280.828V305H466.866V283.451H454.946V305H451.742V280.828H470.054ZM484.812 282.97L476.811 305H473.54L482.754 280.828H484.862L484.812 282.97ZM491.52 305L483.501 282.97L483.451 280.828H485.56L494.807 305H491.52ZM491.104 296.052V298.675H477.524V296.052H491.104ZM513.832 291.221V293.827H500.75V291.221H513.832ZM501.248 280.828V305H498.044V280.828H501.248ZM516.621 280.828V305H513.434V280.828H516.621ZM536.908 297.313H540.096C539.93 298.841 539.493 300.208 538.784 301.414C538.076 302.62 537.074 303.578 535.779 304.286C534.484 304.983 532.868 305.332 530.932 305.332C529.515 305.332 528.226 305.066 527.063 304.535C525.912 304.004 524.922 303.251 524.092 302.277C523.262 301.292 522.62 300.114 522.166 298.741C521.723 297.358 521.502 295.819 521.502 294.126V291.719C521.502 290.025 521.723 288.493 522.166 287.12C522.62 285.737 523.267 284.552 524.108 283.567C524.961 282.582 525.984 281.824 527.18 281.293C528.375 280.762 529.72 280.496 531.214 280.496C533.04 280.496 534.584 280.839 535.846 281.525C537.107 282.212 538.087 283.163 538.784 284.381C539.493 285.587 539.93 286.987 540.096 288.581H536.908C536.753 287.452 536.465 286.484 536.045 285.676C535.624 284.857 535.027 284.226 534.252 283.783C533.477 283.34 532.465 283.119 531.214 283.119C530.14 283.119 529.194 283.324 528.375 283.733C527.567 284.143 526.886 284.724 526.333 285.477C525.791 286.229 525.381 287.131 525.104 288.183C524.828 289.234 524.689 290.402 524.689 291.686V294.126C524.689 295.31 524.811 296.423 525.055 297.463C525.309 298.503 525.691 299.416 526.2 300.202C526.709 300.988 527.357 301.608 528.143 302.062C528.928 302.504 529.858 302.726 530.932 302.726C532.293 302.726 533.378 302.51 534.186 302.078C534.993 301.646 535.602 301.027 536.012 300.219C536.432 299.411 536.731 298.442 536.908 297.313ZM547.898 280.828V305H544.694V280.828H547.898ZM567.14 295.587H560.35L558.772 294.939C557.024 294.386 555.679 293.539 554.738 292.399C553.798 291.248 553.327 289.821 553.327 288.116C553.327 286.556 553.67 285.233 554.356 284.148C555.054 283.064 556.039 282.239 557.312 281.675C558.595 281.11 560.112 280.828 561.86 280.828H569.597V305H566.393V283.451H561.86C560.09 283.451 558.756 283.872 557.859 284.713C556.974 285.554 556.531 286.688 556.531 288.116C556.531 289.046 556.725 289.876 557.112 290.606C557.511 291.337 558.097 291.912 558.872 292.333C559.647 292.754 560.61 292.964 561.761 292.964H567.156L567.14 295.587ZM561.694 293.927L555.817 305H552.414L558.457 293.927H561.694Z" fill="#292929"/>
<rect x="54" width="8.99997" height="49" transform="rotate(90 54 0)" fill="#292929"/>
<rect x="351" y="236" width="8.99997" height="67.9999" fill="#71B3E7"/>
</svg>
