<svg aria-hidden="true" style="position: absolute; width: 0; height: 0; overflow: hidden;" version="1.1" xmlns="http://www.w3.org/2000/svg" xmlns:xlink="http://www.w3.org/1999/xlink">
<defs>
<symbol id="icon-facebook-icon" viewBox="0 0 32 32">
<path fill="#fff" style="fill: var(--color1, #fff)" d="M17.72 30.752c-0.15 0.006-0.246 0.018-0.341 0.018-2.049 0-4.091-0.006-6.14 0.006-0.287 0-0.365-0.079-0.365-0.373 0.006-4.862 0.006-9.73 0.006-14.591 0-0.128 0-0.257 0-0.421-1.114 0-2.198 0-3.3 0 0-1.735 0-3.439 0-5.191 0.114 0 0.222 0 0.323 0 0.898 0 1.797-0.006 2.695 0.006 0.228 0 0.287-0.067 0.287-0.293-0.012-1.362-0.012-2.73 0-4.092 0.006-0.953 0.156-1.881 0.587-2.742 0.617-1.215 1.593-2.003 2.827-2.492 1.006-0.403 2.066-0.55 3.133-0.568 1.737-0.024 3.474-0.012 5.211-0.018 0.162 0 0.294-0.006 0.294 0.226-0.006 1.68-0.006 3.359-0.006 5.039 0 0.018-0.006 0.037-0.030 0.116-0.102 0-0.216 0-0.329 0-1.078 0-2.156-0.006-3.235 0-0.623 0-1.126 0.257-1.444 0.812-0.096 0.165-0.156 0.379-0.156 0.574-0.018 1.038 0 2.077-0.012 3.115 0 0.244 0.072 0.312 0.305 0.312 1.497-0.012 2.995-0.006 4.492-0.006 0.12 0 0.234 0 0.437 0-0.21 1.747-0.413 3.457-0.623 5.185-1.557 0-3.073 0-4.618 0 0 5.136 0 10.243 0 15.379z"></path>
</symbol>
<symbol id="icon-instagram-icon" viewBox="0 0 32 32">
<path fill="#fff" style="fill: var(--color1, #fff)" d="M7.589 0.025c-0.36 0.033-0.975 0.138-1.35 0.235-2.923 0.753-5.223 3.054-5.975 5.978-0.1 0.393-0.203 0.993-0.237 1.401-0.015 0.195-0.025 3.142-0.025 8.369 0 8.774-0.005 8.409 0.138 9.192 0.393 2.139 1.615 4.045 3.395 5.298 1.245 0.875 2.645 1.373 4.193 1.491 0.535 0.040 16.581 0.023 16.876-0.020 1.44-0.205 2.523-0.595 3.61-1.298 0.483-0.313 0.808-0.575 1.273-1.033 0.8-0.78 1.37-1.593 1.805-2.584 0.335-0.755 0.527-1.468 0.668-2.444 0.042-0.295 0.060-16.348 0.020-16.883-0.112-1.463-0.563-2.796-1.352-3.989-1.258-1.901-3.205-3.192-5.433-3.602-0.782-0.143-0.407-0.138-9.238-0.135-4.463 0.003-8.228 0.015-8.365 0.025zM24.352 2.774c2.317 0.285 4.195 1.938 4.763 4.19 0.173 0.685 0.163 0.073 0.163 9.054 0 7.143-0.005 8.149-0.037 8.409-0.125 0.948-0.485 1.846-1.058 2.619-0.24 0.325-0.82 0.905-1.145 1.145-0.773 0.573-1.67 0.933-2.618 1.058-0.26 0.033-1.265 0.038-8.405 0.038-8.978 0-8.365 0.010-9.050-0.163-2.258-0.57-3.928-2.476-4.188-4.787-0.020-0.17-0.025-2.664-0.020-8.469l0.007-8.229 0.070-0.345c0.405-2.029 1.81-3.634 3.735-4.27 0.33-0.108 0.863-0.228 1.158-0.258 0.228-0.025 16.428-0.015 16.626 0.007z"></path>
<path fill="#fff" style="fill: var(--color1, #fff)" d="M24.465 5.361c-0.695 0.163-1.228 0.68-1.398 1.368-0.058 0.233-0.053 0.638 0.010 0.883 0.275 1.081 1.458 1.666 2.488 1.233 0.278-0.115 0.633-0.4 0.79-0.633 0.438-0.645 0.433-1.496-0.015-2.124-0.222-0.313-0.528-0.538-0.905-0.67-0.188-0.065-0.265-0.075-0.52-0.083-0.195-0.008-0.352 0.003-0.45 0.025z"></path>
<path fill="#fff" style="fill: var(--color1, #fff)" d="M15.488 8.067c-1.965 0.155-3.735 0.96-5.098 2.326-1.26 1.258-2.033 2.839-2.283 4.662-0.060 0.443-0.060 1.491 0.002 1.938 0.178 1.303 0.578 2.376 1.278 3.427 1.090 1.638 2.718 2.809 4.593 3.302 1.175 0.308 2.455 0.343 3.643 0.098 1.53-0.315 2.9-1.056 4.015-2.174 1.267-1.268 2.038-2.834 2.28-4.64 0.055-0.418 0.062-1.476 0.013-1.876-0.235-1.861-1.010-3.459-2.305-4.752-1.25-1.248-2.848-2.028-4.638-2.264-0.285-0.040-1.235-0.068-1.5-0.047zM16.488 10.506c1.070 0.090 2.133 0.518 2.988 1.198 0.283 0.228 0.748 0.708 0.965 1.001 0.56 0.75 0.903 1.571 1.053 2.514 0.060 0.385 0.060 1.218 0 1.611-0.38 2.429-2.243 4.292-4.67 4.672-0.383 0.060-1.248 0.060-1.618 0-1.83-0.295-3.353-1.413-4.155-3.051-0.83-1.691-0.745-3.677 0.227-5.288 0.443-0.73 1.15-1.438 1.88-1.881 0.997-0.603 2.173-0.875 3.33-0.775z"></path>
</symbol>
<symbol id="icon-linkedin-icon" viewBox="0 0 32 32">
<path fill="#fff" style="fill: var(--color1, #fff)" d="M10.8 31.981c0-0.152 0-0.298 0-0.444 0-6.835 0-13.664 0-20.499 0-0.19-0.013-0.343 0.265-0.343 2.009 0.013 4.025 0.006 6.035 0.006 0.051 0 0.101 0.013 0.183 0.025 0 0.889 0 1.764 0 2.646 0.025 0.006 0.044 0.019 0.070 0.025 0.253-0.33 0.493-0.673 0.758-0.996 0.771-0.952 1.738-1.65 2.875-2.069 0.619-0.228 1.295-0.368 1.946-0.4 0.897-0.038 1.814-0.025 2.698 0.127 1.453 0.248 2.736 0.895 3.798 1.955 1.005 0.996 1.668 2.196 2.028 3.548 0.19 0.717 0.31 1.453 0.423 2.183 0.076 0.508 0.114 1.028 0.114 1.536 0.006 4.125 0.006 8.25 0.006 12.375 0 0.102-0.006 0.203-0.013 0.336-0.12 0-0.221 0-0.322 0-1.94 0-3.874-0.006-5.814 0.006-0.322 0-0.379-0.108-0.379-0.4 0.006-3.795 0.019-7.596-0.006-11.392-0.006-0.666-0.069-1.358-0.24-1.999-0.31-1.123-1.017-1.936-2.142-2.348-0.948-0.349-1.908-0.413-2.882-0.165-1.074 0.273-1.814 0.99-2.37 1.936-0.43 0.73-0.512 1.536-0.518 2.342-0.025 3.852-0.013 7.698-0.013 11.55 0 0.146 0 0.292 0 0.451-2.18 0.006-4.322 0.006-6.502 0.006z"></path>
<path fill="#fff" style="fill: var(--color1, #fff)" d="M6.729 21.439c0 3.383-0.006 6.765 0.006 10.148 0 0.305-0.063 0.419-0.398 0.413-1.927-0.019-3.855-0.019-5.782 0-0.316 0-0.385-0.108-0.385-0.4 0.006-6.797 0.006-13.6 0-20.397 0-0.273 0.076-0.368 0.354-0.368 1.946 0.013 3.893 0.013 5.845 0 0.303 0 0.36 0.114 0.36 0.387 0 3.408 0 6.816 0 10.217z"></path>
<path fill="#fff" style="fill: var(--color1, #fff)" d="M3.381 0.002c2.079-0.051 3.324 1.466 3.33 3.325 0.006 1.904-1.321 3.325-3.406 3.319-1.94 0-3.311-1.396-3.305-3.37 0.006-1.847 1.34-3.338 3.381-3.275z"></path>
</symbol>
<symbol id="icon-mail-icon" viewBox="0 0 32 32">
<path d="M5.517 0h20.966c3.047 0 5.517 2.47 5.517 5.517v20.966c0 3.047-2.47 5.517-5.517 5.517h-20.966c-3.047 0-5.517-2.47-5.517-5.517v-20.966c0-3.047 2.47-5.517 5.517-5.517z"></path>
<path fill="#000" style="fill: var(--color2, #000)" d="M24.199 9.427c-0.247-0.361-0.661-0.6-1.129-0.6h-14.76c-0.458 0-0.863 0.23-1.112 0.579l8.519 7.103 8.482-7.082z"></path>
<path fill="#000" style="fill: var(--color2, #000)" d="M6.943 10.617v10.085c0 0.752 0.615 1.367 1.367 1.367h14.76c0.752 0 1.367-0.615 1.367-1.367v-10.049l-8.72 7.28-8.774-7.316z"></path>
</symbol>
<symbol id="icon-telefon-icon" viewBox="0 0 32 32">
<path d="M5.517 0h20.966c3.047 0 5.517 2.47 5.517 5.517v20.966c0 3.047-2.47 5.517-5.517 5.517h-20.966c-3.047 0-5.517-2.47-5.517-5.517v-20.966c0-3.047 2.47-5.517 5.517-5.517z"></path>
<path fill="#000" style="fill: var(--color2, #000)" d="M25.298 21.573l-0.093-0.281c-0.221-0.657-0.946-1.343-1.612-1.524l-2.465-0.673c-0.668-0.182-1.622 0.063-2.111 0.552l-0.892 0.892c-3.242-0.876-5.784-3.418-6.659-6.66l0.892-0.892c0.489-0.489 0.734-1.441 0.552-2.11l-0.672-2.466c-0.182-0.667-0.869-1.392-1.525-1.611l-0.281-0.095c-0.657-0.219-1.595 0.002-2.084 0.492l-1.334 1.336c-0.238 0.237-0.391 0.915-0.391 0.918-0.047 4.237 1.615 8.319 4.612 11.316 2.99 2.99 7.056 4.648 11.281 4.613 0.022 0 0.72-0.15 0.958-0.387l1.334-1.334c0.489-0.489 0.71-1.427 0.491-2.084z"></path>
</symbol>
<symbol id="icon-telegram-icon" viewBox="0 0 32 32">
<path fill="#fff" style="fill: var(--color1, #fff)" d="M11.42 26.457l0.472-7.124 12.935-11.655c0.573-0.522-0.118-0.775-0.876-0.32l-15.966 10.088-6.905-2.189c-1.482-0.421-1.499-1.448 0.337-2.189l26.897-10.375c1.229-0.556 2.408 0.303 1.937 2.189l-4.581 21.575c-0.32 1.533-1.246 1.903-2.526 1.196l-6.973-5.154-3.352 3.251c-0.387 0.387-0.707 0.707-1.398 0.707z"></path>
</symbol>
<symbol id="icon-youtube-icon" viewBox="0 0 32 32">
<path fill="#fff" style="fill: var(--color1, #fff)" d="M16.204 27.077c-3.596-0.115-7.015-0.205-10.435-0.339-0.737-0.032-1.486-0.147-2.204-0.32-1.348-0.32-2.28-1.146-2.758-2.497-0.384-1.088-0.523-2.209-0.623-3.349-0.22-2.677-0.22-5.353-0.113-8.030 0.063-1.511 0.101-3.035 0.497-4.501 0.239-0.877 0.529-1.735 1.228-2.369 0.737-0.672 1.6-1.076 2.582-1.121 2.695-0.134 5.384-0.301 8.079-0.327 3.627-0.038 7.261 0.013 10.888 0.083 1.568 0.032 3.149 0.115 4.704 0.32 1.423 0.192 2.487 0.999 3.054 2.408 0.435 1.082 0.598 2.216 0.693 3.368 0.246 2.888 0.252 5.776 0.113 8.664-0.069 1.466-0.138 2.939-0.548 4.367-0.466 1.639-1.455 2.721-3.105 3.093-0.642 0.141-1.31 0.192-1.965 0.218-3.426 0.122-6.845 0.23-10.088 0.333zM12.721 19.796c2.872-1.511 5.712-3.010 8.608-4.54-2.891-1.537-5.731-3.042-8.608-4.572 0 3.054 0 6.057 0 9.112z"></path>
</symbol>
</defs>
</svg>
