<svg width="23" height="23" viewBox="0 0 23 23" fill="none" xmlns="http://www.w3.org/2000/svg">
<path d="M5.4547 0.0181274C5.19594 0.0414982 4.75389 0.117002 4.48435 0.187117C2.38373 0.728241 0.730549 2.38218 0.189671 4.48375C0.117793 4.766 0.0441185 5.19746 0.0189614 5.49049C0.00817977 5.63072 0.000992016 7.74847 0.000992016 11.5058C0.000992016 17.8123 -0.00260186 17.5498 0.0998236 18.1125C0.381943 19.6496 1.26065 21.0195 2.54007 21.9202C3.43494 22.5494 4.44123 22.9071 5.55353 22.9916C5.93808 23.0204 17.4708 23.0078 17.6829 22.9773C18.7179 22.8298 19.496 22.5494 20.2776 22.0442C20.6245 21.8195 20.8581 21.6307 21.1923 21.3017C21.7673 20.7408 22.177 20.1566 22.4897 19.4447C22.7305 18.9017 22.8688 18.3894 22.9695 17.6883C23 17.4761 23.0126 5.93814 22.9838 5.55342C22.903 4.50173 22.5795 3.54352 22.0117 2.686C21.1078 1.3197 19.708 0.392059 18.1069 0.097229C17.5445 -0.0052433 17.814 -0.00164795 11.4673 0.000148773C8.25972 0.0019474 5.55353 0.0109367 5.4547 0.0181274ZM17.5032 1.99386C19.1689 2.1988 20.5184 3.38712 20.9263 5.0051C21.0503 5.49768 21.0431 5.05723 21.0431 11.513C21.0431 16.6474 21.0395 17.3701 21.0162 17.557C20.9263 18.2384 20.6676 18.8838 20.2561 19.4393C20.0836 19.673 19.6667 20.0901 19.4331 20.2626C18.8778 20.6743 18.2327 20.9332 17.5517 21.0231C17.3648 21.0465 16.6424 21.0501 11.5104 21.0501C5.05758 21.0501 5.49783 21.0573 5.00547 20.9332C3.38283 20.5233 2.18248 19.1534 1.99559 17.4923C1.98122 17.3701 1.97762 15.5777 1.98122 11.4051L1.98661 5.49049L2.03692 5.2424C2.32803 3.78442 3.33791 2.63026 4.72155 2.17364C4.95875 2.09633 5.34149 2.01004 5.55353 1.98847C5.71705 1.97049 17.3612 1.97768 17.5032 1.99386Z" fill="currentColor"/>
<path d="M17.5842 3.85331C17.0846 3.97018 16.7019 4.34235 16.5797 4.83678C16.5383 5.00399 16.5419 5.29526 16.5868 5.47146C16.7845 6.24816 17.6345 6.66888 18.3748 6.35784C18.5743 6.27513 18.8295 6.07017 18.9427 5.90296C19.2572 5.43909 19.2536 4.82779 18.9319 4.37651C18.772 4.15177 18.5527 3.98996 18.2814 3.89466C18.1466 3.84792 18.0909 3.84073 17.9076 3.83533C17.7675 3.82994 17.6543 3.83713 17.5842 3.85331Z" fill="currentColor"/>
<path d="M11.1321 5.79805C9.71972 5.90951 8.44748 6.48838 7.46814 7.46995C6.56248 8.37422 6.00723 9.51039 5.82753 10.821C5.78441 11.1392 5.78441 11.8924 5.82933 12.2142C5.95691 13.1508 6.24442 13.9221 6.74757 14.6771C7.53104 15.8546 8.70085 16.696 10.0486 17.0501C10.8931 17.2713 11.8132 17.2964 12.6667 17.1203C13.7664 16.8937 14.7512 16.3616 15.5526 15.558C16.4636 14.6466 17.0171 13.5212 17.1914 12.2232C17.2309 11.923 17.2363 11.1625 17.2004 10.8749C17.0315 9.53736 16.4744 8.3886 15.5436 7.45916C14.6451 6.56209 13.4969 6.00119 12.2103 5.8322C12.0054 5.80344 11.3226 5.78366 11.1321 5.79805ZM11.8509 7.55085C12.62 7.61557 13.3837 7.92298 13.9982 8.41197C14.2013 8.57556 14.5355 8.92073 14.6919 9.13107C15.0944 9.67039 15.3406 10.2601 15.4484 10.9378C15.4915 11.2147 15.4915 11.8133 15.4484 12.0956C15.1752 13.8412 13.8365 15.1805 12.0917 15.4537C11.8167 15.4969 11.195 15.4969 10.9291 15.4537C9.6137 15.2416 8.51936 14.438 7.94254 13.2605C7.34595 12.0452 7.40705 10.6178 8.10606 9.46006C8.42412 8.93511 8.93265 8.42635 9.45736 8.10815C10.1743 7.67489 11.0189 7.47894 11.8509 7.55085Z" fill="currentColor"/>
</svg>
