<svg width="16" height="16" viewBox="0 0 16 16" fill="none" xmlns="http://www.w3.org/2000/svg">
<path d="M5.39995 15.9906C5.39995 15.9145 5.39995 15.8415 5.39995 15.7685C5.39995 12.351 5.39995 8.93671 5.39995 5.51922C5.39995 5.42402 5.39363 5.34787 5.53265 5.34787C6.53739 5.35422 7.5453 5.35104 8.55004 5.35104C8.57532 5.35104 8.60059 5.35739 8.64167 5.36373C8.64167 5.80798 8.64167 6.24587 8.64167 6.68694C8.65431 6.69011 8.66379 6.69646 8.67642 6.69963C8.80281 6.53463 8.92287 6.36328 9.05557 6.20145C9.44104 5.72547 9.92446 5.37643 10.4932 5.167C10.8028 5.05277 11.1409 4.98296 11.4663 4.96709C11.915 4.94805 12.3731 4.9544 12.8155 5.03055C13.5422 5.15431 14.1836 5.47797 14.7144 6.00789C15.2167 6.50607 15.5485 7.1058 15.7286 7.78168C15.8234 8.14025 15.8834 8.50833 15.9403 8.87325C15.9782 9.1271 15.9972 9.3873 15.9972 9.64115C16.0003 11.7037 16.0003 13.7663 16.0003 15.8288C16.0003 15.8796 15.9972 15.9303 15.994 15.997C15.934 15.997 15.8834 15.997 15.8329 15.997C14.8629 15.997 13.896 15.9938 12.9261 16.0002C12.7649 16.0002 12.7365 15.9462 12.7365 15.8002C12.7396 13.9027 12.746 12.002 12.7333 10.1044C12.7302 9.77125 12.6986 9.42538 12.6133 9.10489C12.4584 8.54324 12.1046 8.13707 11.5422 7.93082C11.0682 7.75629 10.588 7.72456 10.1014 7.84832C9.56426 7.98476 9.19459 8.34333 8.91655 8.81613C8.7017 9.18104 8.66063 9.58403 8.65747 9.98702C8.64483 11.9131 8.65115 13.8361 8.65115 15.7622C8.65115 15.8352 8.65115 15.9081 8.65115 15.9875C7.56109 15.9906 6.49 15.9906 5.39995 15.9906Z" fill="currentColor"/>
<path d="M3.3646 10.7193C3.3646 12.4106 3.36144 14.1019 3.36776 15.7932C3.36776 15.9455 3.33616 16.0026 3.16871 15.9995C2.20503 15.9899 1.24137 15.9899 0.277695 15.9995C0.119716 15.9995 0.0849609 15.9455 0.0849609 15.7996C0.0881205 12.4011 0.0881205 8.99949 0.0849609 5.60104C0.0849609 5.46459 0.122876 5.41699 0.261897 5.41699C1.23505 5.42334 2.20819 5.42334 3.1845 5.41699C3.33616 5.41699 3.3646 5.47411 3.3646 5.61055C3.3646 7.31454 3.3646 9.01852 3.3646 10.7193Z" fill="currentColor"/>
<path d="M1.69038 0.000976533C2.72988 -0.0244087 3.35232 0.733976 3.35548 1.66371C3.35864 2.61566 2.69513 3.32644 1.65247 3.32327C0.682479 3.32327 -0.0031487 2.62518 1.0875e-05 1.63833C0.00317045 0.714937 0.669841 -0.030755 1.69038 0.000976533Z" fill="currentColor"/>
</svg>
