<svg width="29" height="29" viewBox="0 0 29 29" fill="none" xmlns="http://www.w3.org/2000/svg">
<rect width="29" height="29" rx="5" fill="#E3EC21"/>
<path d="M22.9266 19.5508L22.842 19.2958C22.6416 18.7 21.9846 18.0786 21.381 17.9149L19.1471 17.3047C18.5414 17.1399 17.6772 17.3615 17.234 17.8047L16.4255 18.6132C13.4874 17.8192 11.1834 15.5152 10.3906 12.5776L11.1991 11.7691C11.6423 11.3259 11.8639 10.4629 11.699 9.8571L11.0899 7.62215C10.9251 7.01747 10.3026 6.36048 9.70798 6.16225L9.45298 6.07651C8.85721 5.87828 8.00754 6.07875 7.56436 6.52194L6.355 7.7324C6.13895 7.94731 6.00087 8.562 6.00087 8.56425C5.95857 12.4038 7.46412 16.1031 10.1801 18.8191C12.8894 21.5284 16.5748 23.0318 20.4033 22.9995C20.4233 22.9995 21.0558 22.8636 21.2718 22.6487L22.4812 21.4393C22.9244 20.9962 23.1248 20.1465 22.9266 19.5508Z" fill="black"/>
</svg>
