<svg width="19" height="14" viewBox="0 0 19 14" fill="none" xmlns="http://www.w3.org/2000/svg">
<path d="M9.62088 13.5769C7.4859 13.5084 5.4556 13.4552 3.42531 13.3754C2.98784 13.3564 2.5429 13.2879 2.11665 13.1853C1.3165 12.9952 0.763122 12.5047 0.478956 11.7025C0.250875 11.0562 0.168617 10.3909 0.108792 9.71411C-0.0220739 8.12491 -0.0220739 6.5357 0.0414896 4.9465C0.0788799 4.04925 0.101314 3.14439 0.336873 2.27375C0.478956 1.75289 0.650951 1.24343 1.06598 0.867041C1.50345 0.467839 2.0157 0.228318 2.59899 0.201705C4.19929 0.121864 5.79585 0.0230144 7.39616 0.00780668C9.54984 -0.0150048 11.7073 0.0154106 13.8609 0.0572318C14.792 0.0762414 15.7305 0.125666 16.654 0.247328C17.499 0.361385 18.1309 0.840427 18.4674 1.67685C18.7254 2.31937 18.8226 2.99231 18.8787 3.67666C19.0245 5.39133 19.0283 7.10599 18.946 8.82066C18.9049 9.6913 18.8638 10.5657 18.6207 11.4136C18.344 12.3869 17.757 13.0294 16.7774 13.2499C16.396 13.3335 15.9997 13.364 15.6108 13.3792C13.5768 13.4514 11.5465 13.516 9.62088 13.5769ZM7.5532 9.25408C9.2582 8.35682 10.9445 7.46717 12.6645 6.55852C10.9482 5.64605 9.26194 4.7526 7.5532 3.84394C7.5532 5.65746 7.5532 7.44056 7.5532 9.25408Z" fill="currentColor"/>
</svg>
